<svg width="375" height="482" viewBox="0 0 375 482" fill="none" xmlns="http://www.w3.org/2000/svg">
<path d="M-52.7346 436.834C-55.8589 411.543 -30.8649 390.193 -5.72213 386.251C19.4206 382.308 44.7122 390.417 69.7062 395.624C94.6258 400.831 122.744 402.542 143.572 387.887C170.203 369.142 176.377 329.717 203.826 312.087C225.175 298.326 252.995 302.491 274.865 312.682C287.213 318.485 297.776 328.155 309.604 334.924C363.237 365.646 366.882 428.354 412.481 437.652C461.799 447.769 488.579 423.742 497.951 407.005C509.853 385.656 529.789 330.163 481.066 291.631C461.279 275.935 441.715 259.273 427.135 238.667C405.34 207.797 405.489 160.636 433.384 135.121C452.501 117.64 481.884 111.243 494.827 88.8523C503.53 73.7517 502.34 54.3367 494.827 38.6411C487.24 22.9455 474.148 10.5229 459.94 0.40625" stroke="url(#paint0_linear_14328_60644)" stroke-miterlimit="10"/>
<path d="M-51.6171 438.097C-53.7743 412.061 -28.9291 389.597 -3.04245 385.133C22.2491 380.745 47.9126 388.778 72.9066 394.581C97.603 400.234 124.977 402.837 145.731 389.522C172.287 372.488 179.726 334.997 207.101 317.664C228.896 303.903 256.27 306.432 278.661 315.358C291.53 320.491 302.911 329.641 315.333 336.484C367.851 365.57 372.165 426.269 416.797 435.493C464.777 445.387 491.407 422.624 501.077 406.185C513.351 385.357 532.32 331.947 486.274 293.861C467.306 278.165 448.486 261.13 434.129 240.674C412.929 210.547 412.78 165.023 439.113 139.731C457.338 122.25 485.605 115.109 498.548 93.0161C507.4 77.9156 506.88 58.7238 500.334 42.8793C493.713 26.8862 481.663 13.7941 467.975 2.93359" stroke="url(#paint1_linear_14328_60644)" stroke-miterlimit="10"/>
<path d="M-50.5036 439.364C-51.6938 412.585 -26.9973 389.004 -0.292437 384.021C25.1479 379.26 51.2577 387.219 76.1773 393.468C100.576 399.567 127.207 403.064 147.961 391.013C174.368 375.615 183.146 340.132 210.52 323.023C232.762 309.187 259.764 310.229 282.601 317.891C295.991 322.354 308.264 330.983 321.208 337.901C372.535 365.498 377.593 424.041 421.258 433.116C467.824 442.786 494.306 421.288 504.348 405.146C516.92 384.913 534.996 333.437 491.628 295.798C473.478 280.028 455.327 262.696 441.268 242.314C420.737 212.931 420.217 169.042 444.987 143.974C462.32 126.493 489.545 118.608 502.414 96.7384C511.415 81.5635 511.564 62.6692 505.91 46.7504C500.183 30.4597 489.099 16.6981 476.007 5.09375" stroke="url(#paint2_linear_14328_60644)" stroke-miterlimit="10"/>
<path d="M-49.3872 440.627C-49.6103 413.178 -25.0627 388.482 2.38611 382.903C27.9752 377.695 54.4569 385.581 79.4509 392.424C103.552 399.045 129.513 403.285 150.193 392.647C176.526 378.96 186.494 345.412 213.868 328.6C236.556 314.69 263.112 314.169 286.544 320.566C300.454 324.36 313.546 332.468 327.085 339.535C377.222 365.645 383.098 422.03 425.722 431.031C470.875 440.478 497.208 420.319 507.622 404.4C520.565 384.688 537.749 335.221 496.985 298.102C479.578 282.257 462.32 264.627 448.335 244.394C428.549 215.681 427.582 173.504 450.79 148.733C467.23 131.177 493.34 122.548 506.208 101.051C515.358 85.8014 516.176 67.2047 511.49 51.1371C506.655 34.6232 496.613 20.1178 484.041 7.76953" stroke="url(#paint3_linear_14328_60644)" stroke-miterlimit="10"/>
<path d="M-48.2715 441.89C-47.5276 413.697 -23.1287 387.959 5.0639 381.785C30.8018 376.206 57.6554 383.942 82.6494 391.306C106.453 398.373 131.745 403.506 152.276 394.208C178.46 382.231 189.767 350.691 217.141 334.103C240.201 320.118 266.459 318.035 290.338 323.168C304.769 326.292 318.753 333.88 332.812 341.021C381.759 365.792 388.454 419.945 430.036 428.797C473.85 438.021 499.96 419.127 510.746 403.506C523.987 384.388 540.277 336.781 502.266 300.257C485.677 284.338 469.089 266.336 455.402 246.326C436.285 218.283 434.946 177.816 456.592 153.268C472.139 135.639 497.207 126.34 510.002 105.14C519.3 89.8164 520.788 71.4429 516.994 55.3753C513.052 38.4895 503.977 23.389 492 10.2969" stroke="url(#paint4_linear_14328_60644)" stroke-miterlimit="10"/>
<path d="M-47.0801 443.156C-45.3692 414.22 -21.0447 387.366 7.89183 380.671C33.7041 374.646 61.0785 382.308 86.0724 390.267C109.579 397.78 134.201 403.88 154.657 395.846C180.767 385.581 193.338 355.975 220.638 339.684C244.145 325.625 270.031 321.906 294.356 325.923C309.382 328.377 324.11 335.444 338.765 342.66C386.372 366.017 393.885 417.939 434.501 426.642C476.901 435.643 502.862 418.014 514.095 402.69C527.633 384.167 543.105 338.42 507.697 302.491C491.927 286.423 476.083 268.198 462.619 248.263C444.171 220.963 442.46 182.058 462.544 157.883C477.199 140.253 501.151 130.211 513.946 109.308C523.393 93.9098 525.55 75.7594 522.649 59.6175C519.599 42.4341 511.491 26.6641 500.11 12.8281" stroke="url(#paint5_linear_14328_60644)" stroke-miterlimit="10"/>
<path d="M-45.9648 444.424C-43.2869 414.743 -19.1112 386.848 10.5692 379.558C36.5302 373.161 64.2765 380.674 89.2705 389.154C112.479 397.114 136.357 404.106 156.814 397.337C182.849 388.782 196.685 361.185 223.985 345.043C247.938 330.909 273.527 325.554 298.223 328.38C313.77 330.165 329.317 336.712 344.641 344.001C390.909 366.094 399.389 415.636 438.963 424.191C479.95 432.968 505.763 416.603 517.367 401.577C531.203 383.575 545.857 339.687 513.053 304.353C498.026 288.211 483 269.689 469.759 249.902C451.981 223.346 449.898 186.078 468.42 162.126C482.182 144.421 505.093 133.71 517.813 113.105C527.335 97.6321 530.236 79.7049 528.302 63.4885C526.219 46.0076 519.078 29.4937 508.217 14.9883" stroke="url(#paint6_linear_14328_60644)" stroke-miterlimit="10"/>
<path d="M-44.8496 445.686C-41.2047 415.336 -17.1777 386.325 13.2465 378.44C39.3563 371.671 67.549 378.961 92.4686 388.111C115.38 396.442 138.588 404.401 158.97 398.971C184.857 392.128 200.032 366.464 227.258 350.62C251.656 336.412 276.874 329.419 302.016 331.056C318.158 332.097 334.523 338.197 350.368 345.561C395.298 366.39 404.67 413.551 443.277 422.031C482.851 430.586 508.514 415.559 520.491 400.757C534.624 383.276 548.46 341.173 518.333 306.583C504.126 290.292 489.843 271.546 476.751 251.908C459.568 226.022 457.113 190.39 474.148 166.81C486.942 149.031 508.812 137.65 521.532 117.342C531.202 101.796 534.847 84.0915 533.732 67.8752C532.541 50.0224 526.367 32.9134 516.027 17.6641" stroke="url(#paint7_linear_14328_60644)" stroke-miterlimit="10"/>
<path d="M-43.7344 446.953C-39.1224 415.859 -15.2442 385.807 15.9983 377.327C42.2569 370.186 70.8214 377.327 95.8154 387.072C118.429 395.849 140.968 404.627 161.276 400.61C187.088 395.477 203.528 371.822 230.753 356.201C255.598 341.993 280.518 333.29 306.033 333.811C322.695 334.183 339.879 339.762 356.318 347.2C399.835 366.838 410.174 411.619 447.814 419.876C486.049 428.208 511.489 414.446 523.837 399.941C538.194 383.055 551.361 342.663 523.763 308.817C510.299 292.303 496.835 273.408 483.966 253.919C467.452 228.776 464.626 194.633 480.098 171.424C492 153.497 512.828 141.52 525.474 121.436C535.293 105.815 539.608 88.4082 539.459 72.0431C539.236 53.8927 533.954 36.1143 524.209 20.1211" stroke="url(#paint8_linear_14328_60644)" stroke-miterlimit="10"/>
<path d="M-42.6172 448.22C-37.0382 416.383 -13.3088 385.289 18.6776 376.214C45.0849 368.701 74.0214 375.693 99.0154 385.958C121.331 395.182 143.201 404.853 163.434 402.175C189.098 398.753 206.876 377.032 234.102 361.708C259.394 347.426 283.941 337.012 309.902 336.417C327.16 336.045 345.087 341.252 362.122 348.691C404.299 367.138 415.532 409.465 452.204 417.647C489.026 425.755 514.317 413.258 527.038 398.976C541.692 382.611 554.114 343.855 529.046 310.902C516.4 294.239 503.606 275.122 491.034 255.707C475.19 231.308 471.917 198.727 485.902 175.815C496.911 157.814 516.698 145.168 529.269 125.381C539.237 109.76 544.295 92.5021 544.965 76.0626C545.709 57.5403 541.394 39.1667 532.17 22.4297" stroke="url(#paint9_linear_14328_60644)" stroke-miterlimit="10"/>
<path d="M-41.4277 449.475C-34.8817 416.894 -11.2267 384.833 21.4292 375.088C47.9853 367.203 77.3681 373.973 102.362 384.908C124.381 394.503 145.506 405.141 165.665 403.802C191.254 402.017 210.297 382.378 237.449 367.203C263.187 352.847 287.362 340.722 313.77 339.011C331.548 337.895 350.294 342.656 367.923 350.169C408.687 367.501 420.961 407.298 456.592 415.332C492.001 423.217 517.069 411.984 530.31 398C545.262 382.155 556.94 345.036 534.476 312.901C522.648 296.015 510.597 276.749 498.249 257.483C483.074 233.828 479.355 202.734 491.852 180.269C501.968 162.119 520.64 148.878 533.211 129.389C543.328 113.693 549.13 96.6583 550.692 80.2188C552.403 61.399 548.981 42.3559 540.352 24.875" stroke="url(#paint10_linear_14328_60644)" stroke-miterlimit="10"/>
<path d="M-40.3125 450.742C-32.7994 417.491 -9.29317 384.314 24.1065 373.975C50.8114 365.718 80.5662 372.338 105.56 383.794C127.356 393.836 147.738 405.366 167.822 405.292C193.262 405.217 213.644 387.587 240.796 372.636C266.98 358.279 290.858 344.369 317.637 341.616C336.011 339.682 355.426 344.146 373.725 351.733C413.076 367.949 426.316 405.217 460.981 413.177C495.05 420.838 519.895 410.871 533.508 397.183C548.683 381.934 559.841 346.303 539.756 315.135C528.747 298.026 517.44 278.611 505.241 259.493C490.661 236.582 486.57 206.902 497.579 184.883C506.729 166.584 524.433 152.674 536.93 133.556C547.195 117.786 553.741 100.975 556.122 84.461C558.874 65.2692 556.345 45.631 548.236 27.4062" stroke="url(#paint11_linear_14328_60644)" stroke-miterlimit="10"/>
<path d="M-39.1953 452.009C-30.7152 418.014 -7.35772 383.796 26.8602 372.861C53.6395 364.232 83.915 370.63 108.835 382.755C130.332 393.169 150.045 405.666 170.055 406.93C195.421 408.567 217.068 392.871 244.144 378.217C270.775 363.786 294.281 348.165 321.507 344.297C340.401 341.619 360.634 345.71 379.529 353.297C417.466 368.472 431.674 403.211 465.371 410.947C498.027 418.46 522.649 409.683 536.708 396.293C552.18 381.564 562.743 347.495 545.039 317.294C534.848 299.888 524.211 280.398 512.309 261.355C498.399 239.188 493.787 210.995 503.383 189.423C511.565 170.975 528.302 156.47 540.725 137.65C551.139 121.805 558.503 105.217 561.628 88.6289C565.347 69.1396 563.71 48.8319 556.197 29.8633" stroke="url(#paint12_linear_14328_60644)" stroke-miterlimit="10"/>
<path d="M-38.082 453.272C-28.6349 418.533 -5.3518 383.348 29.5356 371.744C56.4637 362.817 87.1111 368.917 112.105 381.637C133.305 392.423 152.274 405.887 172.284 408.491C197.501 411.838 220.487 398.151 247.564 383.72C274.64 369.289 297.775 351.808 325.447 346.899C344.862 343.477 365.913 347.196 385.403 354.784C421.852 368.917 437.101 401.127 469.832 408.714C501.074 416.004 525.547 408.491 539.978 395.399C555.674 381.191 565.791 348.535 550.467 319.45C541.169 301.746 531.201 282.182 519.522 263.288C506.281 241.79 501.149 215.085 509.331 193.959C516.547 175.288 532.242 160.262 544.665 141.665C555.228 125.746 563.336 109.381 567.353 92.7929C572.114 73.006 571.295 52.0289 564.303 32.3164" stroke="url(#paint13_linear_14328_60644)" stroke-miterlimit="10"/>
<path d="M-36.9648 454.539C-26.5507 419.056 -3.41636 382.904 32.215 370.63C59.2918 361.332 90.3855 367.209 115.305 380.598C136.208 391.831 154.507 406.113 174.443 410.13C199.585 415.114 223.836 403.509 250.838 389.301C278.361 374.796 301.124 355.53 329.242 349.579C349.252 345.339 371.047 348.761 391.206 356.348C426.242 369.44 442.533 399.046 474.222 406.485C504.051 413.552 528.301 407.303 543.178 394.509C559.097 380.821 568.842 349.579 555.75 321.535C547.344 303.533 537.971 283.895 526.59 265.15C513.944 244.396 508.291 219.104 515.135 198.425C521.309 179.605 536.112 163.984 548.386 145.684C559.097 129.691 568.024 113.549 572.784 96.8867C578.587 76.7278 578.661 55.1556 572.189 34.6992" stroke="url(#paint14_linear_14328_60644)" stroke-miterlimit="10"/>
<path d="M-35.7754 455.805C-24.3942 419.653 -1.33427 382.386 35.0409 369.517C62.2665 359.921 93.7322 365.574 118.726 379.485C139.406 391.089 156.961 406.338 176.822 411.694C201.816 418.389 227.405 408.793 254.408 394.734C282.377 380.228 304.768 359.177 333.332 352.185C353.863 347.126 376.402 350.325 397.231 357.838C430.779 369.963 448.111 396.891 478.833 404.255C507.249 411.099 531.35 406.115 546.674 393.618C562.89 380.452 572.263 350.622 561.328 323.694C553.889 305.321 545.112 285.683 533.879 267.086C521.903 247.076 515.655 223.198 521.159 203.039C526.292 183.996 540.202 167.854 552.402 149.852C563.262 133.859 572.932 117.866 578.586 101.129C585.429 80.6724 586.322 58.4307 580.446 37.2305" stroke="url(#paint15_linear_14328_60644)" stroke-miterlimit="10"/>
<path d="M-34.6582 457.064C-22.31 420.169 0.60118 381.934 37.7202 368.395C65.0946 358.427 97.0066 363.858 121.926 378.438C142.308 390.414 159.12 406.63 178.907 413.251C203.826 421.582 230.68 414.069 257.608 400.233C286.024 385.653 308.042 362.816 337.053 354.783C358.105 348.98 381.462 351.881 402.885 359.32C434.946 370.478 453.32 394.728 483.075 402.018C510.151 408.564 533.955 404.845 549.725 392.72C566.165 380.074 575.314 351.584 566.537 325.846C560.139 307.101 551.808 287.462 540.873 268.94C529.492 249.674 522.723 227.209 526.888 207.496C530.98 188.23 543.997 171.568 556.122 153.864C567.132 137.796 577.62 122.1 584.018 105.289C591.903 84.535 593.613 61.6238 588.332 39.6797" stroke="url(#paint16_linear_14328_60644)" stroke-miterlimit="10"/>
<path d="M-33.543 458.331C-20.2277 420.691 2.60905 381.49 40.3976 367.282C67.9207 356.942 100.279 362.149 125.124 377.398C145.283 389.746 161.351 406.855 181.063 414.889C205.908 424.857 234.101 419.427 260.955 405.814C289.817 391.234 311.463 366.538 340.921 357.463C362.493 350.842 386.594 353.52 408.687 360.884C439.334 371.075 458.749 392.648 487.463 399.789C513.126 406.112 536.707 403.657 552.923 391.829C569.586 379.63 578.587 352.553 571.817 328.005C566.536 308.888 558.651 289.25 547.939 270.876C537.153 252.354 529.789 231.302 532.69 212.111C535.591 192.696 547.865 175.438 559.916 158.031C571.074 141.889 582.38 126.417 589.521 109.531C598.448 88.4796 601.051 64.8989 596.291 42.2109" stroke="url(#paint17_linear_14328_60644)" stroke-miterlimit="10"/>
<path d="M-32.4277 459.594C-18.0711 421.21 4.54255 380.967 43.1493 366.164C70.8213 355.527 103.626 360.362 128.471 376.281C148.332 389.001 163.73 407.077 183.369 416.45C208.065 428.128 237.597 424.707 264.45 411.317C293.759 396.737 315.033 370.181 344.937 360.139C367.03 352.7 391.875 355.229 414.637 362.445C443.797 371.743 464.253 390.563 492 397.63C516.324 403.73 539.607 402.465 556.27 391.009C573.156 379.331 582.157 353.593 577.247 330.161C573.156 310.672 565.568 291.033 555.154 272.809C545.038 255.03 536.929 235.392 538.64 216.647C540.426 197.008 551.807 179.23 563.857 162.121C575.164 145.905 587.289 130.73 595.249 113.695C605.217 92.346 608.638 68.0959 604.473 44.6641" stroke="url(#paint18_linear_14328_60644)" stroke-miterlimit="10"/>
<path d="M-31.3105 460.861C-16.0612 421.808 6.55237 380.523 45.8286 365.125C73.7237 354.116 106.9 358.728 131.671 375.316C151.309 388.408 165.963 407.451 185.527 418.163C210.149 431.552 240.945 430.139 267.725 416.898C297.554 402.318 318.382 373.903 348.732 362.819C371.346 354.562 396.935 357.017 420.367 364.084C448.039 372.415 469.536 388.557 496.316 395.475C519.227 401.351 542.287 401.351 559.396 390.193C576.579 378.961 585.58 354.711 582.53 332.395C579.778 312.608 572.339 292.97 562.222 274.745C552.701 257.71 543.923 239.486 544.444 221.186C544.965 201.399 555.751 183.1 567.653 166.14C579.183 149.924 591.977 134.972 600.755 117.863C611.838 96.2908 616.078 71.2968 612.359 47.1211" stroke="url(#paint19_linear_14328_60644)" stroke-miterlimit="10"/>
<path d="M-30.123 462.128C-13.9067 422.331 8.63252 380.154 48.5783 364.012C76.6221 352.779 110.245 357.019 135.016 374.203C154.356 387.667 168.267 407.677 187.831 419.653C212.304 434.754 244.439 435.349 271.218 422.331C301.494 407.751 321.876 377.476 352.746 365.351C375.881 356.275 402.214 358.581 426.315 365.499C452.573 372.938 475.113 386.328 500.85 393.171C522.348 398.825 545.259 400.015 562.815 389.154C580.221 378.443 589.371 355.68 588.032 334.406C586.767 314.247 579.403 294.609 569.435 276.533C560.509 260.316 551.062 243.505 550.392 225.652C549.648 205.716 559.691 186.822 571.592 170.159C583.271 153.869 596.884 139.14 606.48 121.957C618.605 100.087 623.663 74.4235 620.539 49.5039" stroke="url(#paint20_linear_14328_60644)" stroke-miterlimit="10"/>
<path d="M-29.0059 463.391C-11.8225 422.85 10.568 379.631 51.2576 362.82C79.4502 351.215 113.519 355.232 138.216 373.085C157.333 386.921 170.5 407.824 189.989 421.213C214.388 437.951 247.788 440.554 274.493 427.834C305.214 413.18 325.224 381.119 356.541 368.027C380.196 358.133 407.273 360.439 432.044 367.06C456.815 373.68 480.396 384.318 505.166 390.938C525.251 396.368 547.939 398.749 565.94 388.26C583.57 377.995 592.943 356.943 593.24 336.561C593.538 316.179 586.099 296.392 576.429 278.465C568.098 262.993 557.907 247.669 556.121 230.188C554.039 210.104 563.486 190.614 575.313 174.249C587.141 157.884 601.572 143.453 611.912 126.121C625.078 104.028 630.955 77.6205 628.425 51.957" stroke="url(#paint21_linear_14328_60644)" stroke-miterlimit="10"/>
<defs>
<linearGradient id="paint0_linear_14328_60644" x1="512.257" y1="220.232" x2="-53" y2="220.232" gradientUnits="userSpaceOnUse">
<stop stop-color="#0369A1"/>
<stop offset="1" stop-color="#0369A1" stop-opacity="0"/>
</linearGradient>
<linearGradient id="paint1_linear_14328_60644" x1="515.573" y1="220.515" x2="-51.748" y2="220.515" gradientUnits="userSpaceOnUse">
<stop stop-color="#0369A1"/>
<stop offset="1" stop-color="#0369A1" stop-opacity="0"/>
</linearGradient>
<linearGradient id="paint2_linear_14328_60644" x1="519.012" y1="222.229" x2="-50.5449" y2="222.229" gradientUnits="userSpaceOnUse">
<stop stop-color="#0369A1"/>
<stop offset="1" stop-color="#0369A1" stop-opacity="0"/>
</linearGradient>
<linearGradient id="paint3_linear_14328_60644" x1="522.517" y1="224.198" x2="-49.3887" y2="224.198" gradientUnits="userSpaceOnUse">
<stop stop-color="#0369A1"/>
<stop offset="1" stop-color="#0369A1" stop-opacity="0"/>
</linearGradient>
<linearGradient id="paint4_linear_14328_60644" x1="525.834" y1="226.093" x2="-48.2715" y2="226.093" gradientUnits="userSpaceOnUse">
<stop stop-color="#0369A1"/>
<stop offset="1" stop-color="#0369A1" stop-opacity="0"/>
</linearGradient>
<linearGradient id="paint5_linear_14328_60644" x1="529.404" y1="227.992" x2="-47.0801" y2="227.992" gradientUnits="userSpaceOnUse">
<stop stop-color="#0369A1"/>
<stop offset="1" stop-color="#0369A1" stop-opacity="0"/>
</linearGradient>
<linearGradient id="paint6_linear_14328_60644" x1="532.907" y1="229.706" x2="-45.9648" y2="229.706" gradientUnits="userSpaceOnUse">
<stop stop-color="#0369A1"/>
<stop offset="1" stop-color="#0369A1" stop-opacity="0"/>
</linearGradient>
<linearGradient id="paint7_linear_14328_60644" x1="536.287" y1="231.675" x2="-44.8496" y2="231.675" gradientUnits="userSpaceOnUse">
<stop stop-color="#0369A1"/>
<stop offset="1" stop-color="#0369A1" stop-opacity="0"/>
</linearGradient>
<linearGradient id="paint8_linear_14328_60644" x1="539.899" y1="233.537" x2="-43.7344" y2="233.537" gradientUnits="userSpaceOnUse">
<stop stop-color="#0369A1"/>
<stop offset="1" stop-color="#0369A1" stop-opacity="0"/>
</linearGradient>
<linearGradient id="paint9_linear_14328_60644" x1="545.047" y1="235.325" x2="-42.6172" y2="235.325" gradientUnits="userSpaceOnUse">
<stop stop-color="#0369A1"/>
<stop offset="1" stop-color="#0369A1" stop-opacity="0"/>
</linearGradient>
<linearGradient id="paint10_linear_14328_60644" x1="551.119" y1="237.175" x2="-41.4277" y2="237.175" gradientUnits="userSpaceOnUse">
<stop stop-color="#0369A1"/>
<stop offset="1" stop-color="#0369A1" stop-opacity="0"/>
</linearGradient>
<linearGradient id="paint11_linear_14328_60644" x1="557.192" y1="239.074" x2="-40.3125" y2="239.074" gradientUnits="userSpaceOnUse">
<stop stop-color="#0369A1"/>
<stop offset="1" stop-color="#0369A1" stop-opacity="0"/>
</linearGradient>
<linearGradient id="paint12_linear_14328_60644" x1="563.543" y1="240.936" x2="-39.1953" y2="240.936" gradientUnits="userSpaceOnUse">
<stop stop-color="#0369A1"/>
<stop offset="1" stop-color="#0369A1" stop-opacity="0"/>
</linearGradient>
<linearGradient id="paint13_linear_14328_60644" x1="570.355" y1="242.794" x2="-38.082" y2="242.794" gradientUnits="userSpaceOnUse">
<stop stop-color="#0369A1"/>
<stop offset="1" stop-color="#0369A1" stop-opacity="0"/>
</linearGradient>
<linearGradient id="paint14_linear_14328_60644" x1="577.092" y1="244.619" x2="-36.9648" y2="244.619" gradientUnits="userSpaceOnUse">
<stop stop-color="#0369A1"/>
<stop offset="1" stop-color="#0369A1" stop-opacity="0"/>
</linearGradient>
<linearGradient id="paint15_linear_14328_60644" x1="584.341" y1="246.518" x2="-35.7754" y2="246.518" gradientUnits="userSpaceOnUse">
<stop stop-color="#0369A1"/>
<stop offset="1" stop-color="#0369A1" stop-opacity="0"/>
</linearGradient>
<linearGradient id="paint16_linear_14328_60644" x1="591.369" y1="248.372" x2="-34.6582" y2="248.372" gradientUnits="userSpaceOnUse">
<stop stop-color="#0369A1"/>
<stop offset="1" stop-color="#0369A1" stop-opacity="0"/>
</linearGradient>
<linearGradient id="paint17_linear_14328_60644" x1="598.635" y1="250.271" x2="-33.543" y2="250.271" gradientUnits="userSpaceOnUse">
<stop stop-color="#0369A1"/>
<stop offset="1" stop-color="#0369A1" stop-opacity="0"/>
</linearGradient>
<linearGradient id="paint18_linear_14328_60644" x1="606.21" y1="252.129" x2="-32.4277" y2="252.129" gradientUnits="userSpaceOnUse">
<stop stop-color="#0369A1"/>
<stop offset="1" stop-color="#0369A1" stop-opacity="0"/>
</linearGradient>
<linearGradient id="paint19_linear_14328_60644" x1="613.677" y1="253.991" x2="-31.3105" y2="253.991" gradientUnits="userSpaceOnUse">
<stop stop-color="#0369A1"/>
<stop offset="1" stop-color="#0369A1" stop-opacity="0"/>
</linearGradient>
<linearGradient id="paint20_linear_14328_60644" x1="621.442" y1="255.816" x2="-30.123" y2="255.816" gradientUnits="userSpaceOnUse">
<stop stop-color="#0369A1"/>
<stop offset="1" stop-color="#0369A1" stop-opacity="0"/>
</linearGradient>
<linearGradient id="paint21_linear_14328_60644" x1="629" y1="257.674" x2="-29.0059" y2="257.674" gradientUnits="userSpaceOnUse">
<stop stop-color="#0369A1"/>
<stop offset="1" stop-color="#0369A1" stop-opacity="0"/>
</linearGradient>
</defs>
</svg>
