<svg width="96" height="96" viewBox="0 0 96 96" fill="none" xmlns="http://www.w3.org/2000/svg">
<path d="M58.0786 41.3916C61.3493 38.1212 66.6518 38.121 69.9224 41.3916L82.6089 54.0781C85.8792 57.3487 85.8792 62.6513 82.6089 65.9219L68.9517 79.5791C65.8808 82.6499 61.7154 84.375 57.3726 84.375H25.6567C21.7593 84.3747 19.808 79.6623 22.564 76.9062L58.0786 41.3916ZM70.3423 11.625C74.24 11.625 76.1921 16.3377 73.436 19.0938L37.9214 54.6084C34.6508 57.879 29.3483 57.8788 26.0776 54.6084L13.3911 41.9219C10.1205 38.6512 10.1205 33.3488 13.3911 30.0781L27.0474 16.4209C30.1182 13.35 34.2836 11.6251 38.6265 11.625H70.3423Z" fill="white" stroke="url(#paint0_linear_14325_55629)" stroke-width="0.75"/>
<defs>
<linearGradient id="paint0_linear_14325_55629" x1="47.9998" y1="12" x2="47.9998" y2="84" gradientUnits="userSpaceOnUse">
<stop stop-color="white"/>
<stop offset="1" stop-color="white" stop-opacity="0"/>
</linearGradient>
</defs>
</svg>
